<svg width="90" height="29" fill="none" xmlns="http://www.w3.org/2000/svg"><path d="M39.095 15.345 36.02 25.683h-4.145l6.726-22.64h4.147l-.035 10.395 3.091-10.395h4.146l-6.726 22.64H39.06l.035-10.338ZM55.38 15.804H54.13l1.071-3.608h5.975l-3.989 13.413h-4.725l.422-1.434a6.396 6.396 0 0 1-1.598 1.13 4.953 4.953 0 0 1-2.091.577 4.238 4.238 0 0 1-2.064-.41 1.874 1.874 0 0 1-1.125-1.5c-.1-.69.074-1.725.52-3.105L50.76 6.623a4.63 4.63 0 0 1 1.12-1.807 6.078 6.078 0 0 1 2.092-1.37 6.212 6.212 0 0 1 2.322-.489h2.968c.653.024 1.293.19 1.875.488.584.277 1.038.77 1.264 1.375.2.582.223 1.21.07 1.805l-.42 1.406h-4.37l.44-1.45c.101-.302.154-.618.158-.937a1.01 1.01 0 0 0-.158-.577c-.082-.148-.346-.226-.791-.234a1.398 1.398 0 0 0-.948.234c-.202.161-.375.356-.51.577a3.667 3.667 0 0 0-.28.636l-4.463 15.008c-.1.303-.159.619-.176.938-.006.203.049.404.158.576.094.148.357.226.79.234.333.03.667-.052.948-.234.203-.161.375-.356.51-.576a3.6 3.6 0 0 0 .386-.938l1.634-5.484ZM76.951 3.057l-.985 3.268h-3.513l-5.74 19.357h-4.728l5.75-19.357H64.25l.983-3.268H76.95ZM80.2 16.395 86.35 3.04h3.62L79.532 25.682h-4.198l3.022-22.64h3.619L80.2 16.395Z" fill="#fff"/><path d="M29.857 17.694c-.095.396-.208.8-.34 1.186a14.41 14.41 0 0 1-6.229 7.803 14.684 14.684 0 0 1-7.708 2.149c-.12.002-.24-.003-.36-.016-1.256-1.512-2.075-4.035-2.28-5.473a1.037 1.037 0 0 1 .56-1.206 43.037 43.037 0 0 0 11.507-6.883c.486-.418.947-.844 1.38-1.263a16.103 16.103 0 0 0 3.145-4.083 14.23 14.23 0 0 1 .325 7.786ZM12.094 28.32a14.687 14.687 0 0 1-7.46-4.412 15.38 15.38 0 0 1-1.532-2.023 14.23 14.23 0 0 1-.228-14.798c1.523-.307 4.08.117 5.348.626a1.216 1.216 0 0 1 .897 1.2 45.31 45.31 0 0 0 .573 12.529c.114.601.246 1.187.397 1.756a19.15 19.15 0 0 0 2.005 5.123Z" fill="#CE1618"/><path d="M11.989 8.77a67.782 67.782 0 0 1 10.42 5.498 63.528 63.528 0 0 1-10.248 5.68 66.352 66.352 0 0 1-.171-11.177h-.001Z" fill="#fff"/><path d="m28.375 7.332-.272-.469A14.758 14.758 0 0 0 11.227.676a14.663 14.663 0 0 0-6.633 4.25c1.715-.053 3.43.138 5.09.568.596.14 1.197.308 1.815.494a46.084 46.084 0 0 1 11.759 5.676 1.704 1.704 0 0 0 2.136-.218c1.446-1.254 2.694-2.882 2.98-4.116v.002Z" fill="#CE1618"/></svg>